<!DOCTYPE svg PUBLIC "-//W3C//DTD SVG 1.1//EN" "http://www.w3.org/Graphics/SVG/1.1/DTD/svg11.dtd">
<!-- Uploaded to: SVG Repo, www.svgrepo.com, Transformed by: SVG Repo Mixer Tools -->
<svg fill="#ffffff" width="800px" height="800px" viewBox="-5 0 32 32" version="1.1" xmlns="http://www.w3.org/2000/svg" stroke="#ffffff">
<g id="SVGRepo_bgCarrier" stroke-width="0"/>
<g id="SVGRepo_tracerCarrier" stroke-linecap="round" stroke-linejoin="round"/>
<g id="SVGRepo_iconCarrier"> <title>twitter</title> <path d="M10.12 25.6c-5.56 0-10.12-4.56-10.12-10.16 0-0.44 0.2-0.92 0.52-1.24 0.52-0.52 1.32-0.6 1.96-0.2-0.040-0.12-0.080-0.24-0.080-0.32-0.12-0.64-0.32-1.6 0.6-2.32 0.28-0.2 0.56-0.28 0.88-0.28 0.72 0 1.32 0.52 1.84 1.080 1.44 1.44 2.32 2.16 2.84 2.48-0.36-0.76-0.56-1.48-0.56-2.24 0-3.32 2.68-6 5.96-6 2 0 3.84 1 4.96 2.64 1.28 0.16 2.76 0.52 3.040 1.72 0.24 1.12-0.8 2.080-1.84 2.72 0.12 0.64 0.2 1.28 0.2 1.96-0.040 5.6-4.6 10.16-10.2 10.16zM1.72 15.48c0 4.64 3.8 8.44 8.44 8.44 4.68 0 8.44-3.8 8.44-8.44 0-0.72-0.080-1.44-0.28-2.12-0.080-0.36 0.080-0.76 0.4-0.92 1.12-0.68 1.44-1.080 1.56-1.24-0.16-0.12-0.64-0.36-1.92-0.48-0.28-0.040-0.56-0.2-0.68-0.44-0.76-1.32-2.16-2.12-3.68-2.12-2.36 0-4.28 1.92-4.28 4.28 0 0.36 0.040 0.84 0.4 1.56 0.16 0.32 0.6 1.36 0.12 2.12-0.2 0.28-0.56 0.48-1 0.48-0.64 0-1.72-0.36-4.64-3.32-0.32-0.32-0.48-0.44-0.6-0.52 0 0.040 0 0.2 0.080 0.52 0 0.080 0.12 0.32 0.16 0.48 0.4 1.040 0.76 2 0.12 2.6-0.16 0.16-0.4 0.24-0.64 0.24-0.48 0-1.12-0.36-1.92-1.12-0.080 0.040-0.080 0.040-0.080 0z"/> </g>
</svg>