<!DOCTYPE svg PUBLIC "-//W3C//DTD SVG 1.1//EN" "http://www.w3.org/Graphics/SVG/1.1/DTD/svg11.dtd">
<!-- Uploaded to: SVG Repo, www.svgrepo.com, Transformed by: SVG Repo Mixer Tools -->
<svg fill="#ffffff" width="800px" height="800px" viewBox="-6 0 32 32" version="1.1" xmlns="http://www.w3.org/2000/svg" stroke="#ffffff">
<g id="SVGRepo_bgCarrier" stroke-width="0"/>
<g id="SVGRepo_tracerCarrier" stroke-linecap="round" stroke-linejoin="round"/>
<g id="SVGRepo_iconCarrier"> <title>copyright</title> <path d="M9.76 21.68c-1.52 0-2.96-0.6-4.040-1.68-2.24-2.24-2.24-5.84 0-8.040 1.080-1.080 2.52-1.68 4.040-1.68v0c1.52 0 2.96 0.6 4.040 1.68 0.32 0.32 0.32 0.84 0 1.2-0.32 0.32-0.84 0.32-1.2 0-0.76-0.76-1.76-1.16-2.84-1.16v0c-1.080 0-2.080 0.4-2.84 1.16-1.56 1.56-1.56 4.12 0 5.68 0.76 0.76 1.76 1.16 2.84 1.16s2.080-0.4 2.84-1.16c0.32-0.32 0.84-0.32 1.2 0 0.32 0.32 0.32 0.84 0 1.2-1.12 1.080-2.52 1.64-4.040 1.64zM9.76 25.76c-5.4 0-9.76-4.4-9.76-9.76s4.36-9.76 9.76-9.76c5.36 0 9.76 4.36 9.76 9.76s-4.4 9.76-9.76 9.76zM9.76 7.92c-4.44 0-8.080 3.6-8.080 8.080s3.6 8.080 8.080 8.080c4.44 0 8.080-3.6 8.080-8.080s-3.6-8.080-8.080-8.080z"/> </g>
</svg>