<!DOCTYPE svg PUBLIC "-//W3C//DTD SVG 1.1//EN" "http://www.w3.org/Graphics/SVG/1.1/DTD/svg11.dtd">
<!-- Uploaded to: SVG Repo, www.svgrepo.com, Transformed by: SVG Repo Mixer Tools -->
<svg width="800px" height="800px" viewBox="0 0 16 16" xmlns="http://www.w3.org/2000/svg" version="1.1" fill="none" stroke="#ffffff" stroke-linecap="round" stroke-linejoin="round" stroke-width="1.5">
<g id="SVGRepo_bgCarrier" stroke-width="0"/>
<g id="SVGRepo_tracerCarrier" stroke-linecap="round" stroke-linejoin="round"/>
<g id="SVGRepo_iconCarrier"> <path d="m5.75 14.25s-.5-2 .5-3c0 0-2 0-3.5-1.5s-1-4.5 0-5.5c-.5-1.5.5-2.5.5-2.5s1.5 0 2.5 1c1-.5 3.5-.5 4.5 0 1-1 2.5-1 2.5-1s1 1 .5 2.5c1 1 1.5 4 0 5.5s-3.5 1.5-3.5 1.5c1 1 .5 3 .5 3"/> <path d="m5.25 13.75c-1.5.5-3-.5-3.5-1"/> </g>
</svg>